<?xml version="1.0" encoding="UTF-8"?>
<svg id="mcp-logo" xmlns="http://www.w3.org/2000/svg" version="1.1" viewBox="0 0 24 24">
  <!-- Generator: Adobe Illustrator 30.2.1, SVG Export Plug-In . SVG Version: 2.1.1 Build 1)  -->
  <defs>
    <style>
      #mcp-logo .st0 {
        fill: none;
        stroke: currentColor;
        stroke-linecap: round;
        stroke-width: 1.5px;
      }
    </style>
  </defs>
  <path class="st0" d="M2.05,11.26L11.49,1.83c1.3-1.3,3.42-1.3,4.72,0h0c1.3,1.3,1.3,3.42,0,4.72l-7.13,7.13"/>
  <path class="st0" d="M9.18,13.57l7.03-7.03c1.3-1.3,3.42-1.3,4.72,0l.04.04c1.3,1.3,1.3,3.42,0,4.72l-8.53,8.53c-.43.43-.43,1.13,0,1.57l1.75,1.75"/>
  <path class="st0" d="M13.84,4.19l-6.98,6.98c-1.3,1.3-1.3,3.42,0,4.72h0c1.3,1.3,3.42,1.3,4.72,0l6.98-6.98"/>
</svg>