<?xml version="1.0" encoding="UTF-8"?>
<svg id="Misaki" data-name="Misaki" fill="#3142ef" xmlns="http://www.w3.org/2000/svg" viewBox="0 0 173.782615 122.405312">
  <g>
    <path class="cls-1" d="M123.933925,122.364147c-4.447323-.068929-8.912778,.053782-13.227118-1.28192-2.951786-.913853-5.909497-1.842801-8.777345-2.984139-3.083758-1.227278-5.46045-3.454583-7.377582-6.130994-1.806016-2.521282-1.766768-4.907092,.115998-7.380144,1.097196-1.441181,2.361969-2.75346,3.510072-4.157479,2.734422-3.34393,2.722789-6.709223-.06902-9.817625-.755602-.841275-1.585869-1.660742-2.516237-2.292245-4.82198-3.273111-10.146997-5.251292-15.99534-5.164375-2.616078,.03887-5.388823,.507059-7.791923,1.501703-4.306324,1.782397-6.719976,5.357814-7.380339,9.986101-.299041,2.095913,.69658,3.878649,1.828703,5.555071,.696808,1.031806,1.458791,2.019593,2.155978,3.051165,3.104021,4.59278,1.624165,8.662665-2.77457,11.398723-2.210209,1.374781-4.761608,1.839855-7.305818,2.20263-5.731909,.817342-11.426388,.294094-17.105815-.550074-2.63828-.392143-5.272115-.816234-7.902873-1.256242-1.980309-.331218-2.95585-1.880967-2.683967-3.871141,.466057-3.411542,.920902-6.830266,1.194811-10.2608,.268135-3.35819,.465337-6.73833,.393472-10.102399-.061212-2.865404-.357587-5.758012-.891527-8.573818-.88602-4.672528-4.333284-6.679875-8.887944-5.308463-1.796059,.540793-3.499226,1.387464-5.250736,2.079541-2.027569,.801153-4.089948,1.488237-6.315288,1.212536-2.999421-.371574-5.274529-2.019463-7.160159-4.261947-4.926933-5.859359-4.61634-13.172738-1.073337-19.006353,2.639879-4.346596,7.36726-6.118558,12.637497-4.982909,2.6377,.568375,5.210166,1.433139,7.82761,2.103428,3.517181,.900701,6.589576,.071627,8.981059-2.69026,.718554-.829849,1.361218-1.911019,1.564788-2.968295,.783585-4.069695,.786016-8.182177,.425988-12.318299-.746335-8.574229-3.09084-16.845771-4.637607-25.267432-.430029-2.341351,.406957-4.035687,2.710718-4.701577,3.516639-1.016464,7.060442-1.989577,10.648939-2.695122,5.617345-1.10444,11.272032-2.031602,16.929374-2.915664,3.911926-.611309,7.852177-.710137,11.796971-.126533,3.793595,.561239,6.625597,5.009051,5.254641,8.595388-.640745,1.676146-1.763483,3.16146-2.539902,4.794069-.866165,1.821332-1.786502,3.65579-2.327439,5.584338-.958758,3.418216,.314051,6.394117,2.480873,8.992292,6.263408,7.510266,15.619954,8.937826,23.719853,4.853042,3.376797-1.702916,6.038341-4.386946,7.960224-7.69224,1.335579-2.296957,1.518341-4.759859,.396066-7.170455-1.169683-2.512408-2.547508-4.927149-3.791907-7.405888-.525634-1.047021-1.010794-2.124837-1.395468-3.230034-.890892-2.559588,.094171-4.561686,2.648946-5.534665,2.377819-.905582,4.854065-1.059694,7.359118-.912146,2.944656,.173443,5.885128,.422615,8.830736,.574469,7.560625,.389774,14.982376,1.656805,22.313247,3.492147,2.151468,.538643,3.229704,2.350355,2.604979,4.466524-.471578,1.597493-1.073479,3.171712-1.774093,4.68367-2.499539,5.393989-3.694008,11.032298-3.480183,16.981761,.121264,3.373617-.05635,6.774535,.892971,10.064982,1.244093,4.312145,3.737545,7.558912,8.265202,8.66155,3.642051,.886969,6.945311-.422938,10.066278-2.20568,1.048686-.59902,2.004759-1.361016,3.057004-1.95277,2.78533-1.566388,5.342745-1.182946,7.729075,.957866,2.163759,1.941162,3.184851,4.450856,3.617545,7.199005,1.06979,6.794381-.180208,13.127344-4.303235,18.712376-1.644474,2.227605-3.700135,4.19676-6.696383,4.282412-1.439356,.041138-2.950235-.358057-4.330009-.840297-1.568806-.548301-3.006885-1.45872-4.537616-2.130078-4.732579-2.075663-9.629086-.180267-11.662197,4.590617-1.858547,4.361293-2.444506,8.98365-2.316385,13.683734,.154086,5.653172,.420937,11.303438,.661601,16.954003,.110393,2.592088,.316306,5.180526,.401046,7.773161,.063259,1.934866-1.159014,3.459954-3.043265,3.98474-3.563646,.992532-7.197068,1.326187-10.885784,1.173196-.922808-.038284-1.848562-.005735-2.772973-.005735Z"/>
  </g>
</svg>