<?xml version="1.0" encoding="UTF-8"?>
<svg id="Misaki" fill="#3142ef" xmlns="http://www.w3.org/2000/svg" version="1.1" viewBox="0 0 24 24">
  <!-- Generator: Adobe Illustrator 30.2.1, SVG Export Plug-In . SVG Version: 2.1.1 Build 1)  -->
  <path d="M17.12,20.45c-.61,0-1.23,0-1.83-.18-.41-.13-.82-.25-1.21-.41-.43-.17-.75-.48-1.02-.85-.25-.35-.24-.68.02-1.02.15-.2.33-.38.48-.57.38-.46.38-.93,0-1.36-.1-.12-.22-.23-.35-.32-.67-.45-1.4-.73-2.21-.71-.36,0-.74.07-1.08.21-.59.25-.93.74-1.02,1.38-.04.29.1.54.25.77.1.14.2.28.3.42.43.63.22,1.2-.38,1.57-.31.19-.66.25-1.01.3-.79.11-1.58.04-2.36-.08-.36-.05-.73-.11-1.09-.17-.27-.05-.41-.26-.37-.53.06-.47.13-.94.17-1.42.04-.46.06-.93.05-1.4,0-.4-.05-.8-.12-1.18-.12-.65-.6-.92-1.23-.73-.25.07-.48.19-.73.29-.28.11-.56.21-.87.17-.41-.05-.73-.28-.99-.59-.68-.81-.64-1.82-.15-2.62.36-.6,1.02-.84,1.75-.69.36.08.72.2,1.08.29.49.12.91,0,1.24-.37.1-.11.19-.26.22-.41.11-.56.11-1.13.06-1.7-.1-1.18-.43-2.33-.64-3.49-.06-.32.06-.56.37-.65.49-.14.98-.27,1.47-.37.78-.15,1.56-.28,2.34-.4.54-.08,1.08-.1,1.63-.02.52.08.92.69.73,1.19-.09.23-.24.44-.35.66-.12.25-.25.5-.32.77-.13.47.04.88.34,1.24.86,1.04,2.16,1.23,3.28.67.47-.24.83-.61,1.1-1.06.18-.32.21-.66.05-.99-.16-.35-.35-.68-.52-1.02-.07-.14-.14-.29-.19-.45-.12-.35.01-.63.37-.76.33-.13.67-.15,1.02-.13.41.02.81.06,1.22.08,1.04.05,2.07.23,3.08.48.3.07.45.32.36.62-.07.22-.15.44-.25.65-.35.74-.51,1.52-.48,2.35.02.47,0,.94.12,1.39.17.6.52,1.04,1.14,1.2.5.12.96-.06,1.39-.3.14-.08.28-.19.42-.27.38-.22.74-.16,1.07.13.3.27.44.61.5.99.15.94-.02,1.81-.59,2.58-.23.31-.51.58-.92.59-.2,0-.41-.05-.6-.12-.22-.08-.42-.2-.63-.29-.65-.29-1.33-.02-1.61.63-.26.6-.34,1.24-.32,1.89.02.78.06,1.56.09,2.34.02.36.04.72.06,1.07,0,.27-.16.48-.42.55-.49.14-.99.18-1.5.16-.13,0-.26,0-.38,0h0Z"/>
</svg>