<?xml version="1.0" encoding="UTF-8"?>
<svg id="misaki-logo-dashed" xmlns="http://www.w3.org/2000/svg" version="1.1" viewBox="0 0 24 24">
  <!-- Generator: Adobe Illustrator 30.2.1, SVG Export Plug-In . SVG Version: 2.1.1 Build 1)  -->
  <defs>
    <style>
      #misaki-logo-dashed .st0 {
        fill: none;
        stroke: currentColor;
        stroke-dasharray: 2 2;
        stroke-linecap: round;
      }
    </style>
  </defs>
  <path class="st0" d="M16.75,19.84c-.57,0-1.14,0-1.7-.16-.38-.12-.76-.24-1.13-.38-.4-.16-.7-.44-.95-.79-.23-.32-.23-.63.01-.95.14-.18.3-.35.45-.53.35-.43.35-.86,0-1.26-.1-.11-.2-.21-.32-.29-.62-.42-1.3-.67-2.05-.66-.34,0-.69.07-1,.19-.55.23-.86.69-.95,1.28-.04.27.09.5.23.71.09.13.19.26.28.39.4.59.21,1.11-.36,1.46-.28.18-.61.24-.94.28-.74.1-1.47.04-2.19-.07-.34-.05-.68-.1-1.01-.16-.25-.04-.38-.24-.34-.5.06-.44.12-.88.15-1.32.03-.43.06-.86.05-1.3,0-.37-.05-.74-.11-1.1-.11-.6-.56-.86-1.14-.68-.23.07-.45.18-.67.27-.26.1-.52.19-.81.16-.38-.05-.68-.26-.92-.55-.63-.75-.59-1.69-.14-2.44.34-.56.94-.78,1.62-.64.34.07.67.18,1,.27.45.12.85,0,1.15-.35.09-.11.17-.25.2-.38.1-.52.1-1.05.05-1.58-.1-1.1-.4-2.16-.59-3.24-.06-.3.05-.52.35-.6.45-.13.91-.26,1.37-.35.72-.14,1.45-.26,2.17-.37.5-.08,1.01-.09,1.51-.02.49.07.85.64.67,1.1-.08.21-.23.41-.33.61-.11.23-.23.47-.3.72-.12.44.04.82.32,1.15.8.96,2,1.15,3.04.62.43-.22.77-.56,1.02-.99.17-.29.19-.61.05-.92-.15-.32-.33-.63-.49-.95-.07-.13-.13-.27-.18-.41-.11-.33.01-.59.34-.71.3-.12.62-.14.94-.12.38.02.75.05,1.13.07.97.05,1.92.21,2.86.45.28.07.41.3.33.57-.06.2-.14.41-.23.6-.32.69-.47,1.41-.45,2.18.02.43,0,.87.11,1.29.16.55.48.97,1.06,1.11.47.11.89-.05,1.29-.28.13-.08.26-.17.39-.25.36-.2.69-.15.99.12.28.25.41.57.46.92.14.87-.02,1.68-.55,2.4-.21.29-.47.54-.86.55-.18,0-.38-.05-.56-.11-.2-.07-.39-.19-.58-.27-.61-.27-1.23-.02-1.5.59-.24.56-.31,1.15-.3,1.75.02.73.05,1.45.08,2.17.01.33.04.66.05,1,0,.25-.15.44-.39.51-.46.13-.92.17-1.4.15-.12,0-.24,0-.36,0h0Z"/>
</svg>