<?xml version="1.0" encoding="UTF-8"?>
<svg id="Misaki" xmlns="http://www.w3.org/2000/svg" version="1.1" viewBox="0 0 24 24">
  <!-- Generator: Adobe Illustrator 30.2.1, SVG Export Plug-In . SVG Version: 2.1.1 Build 1)  -->
  <defs>
    <style>
      .st0 {
        fill: none;
        stroke: currentColor;
        stroke-linecap: round;
        stroke-width: .5px;
        opacity: .4;
      }

      .st1 {
        fill: none;
        stroke: currentColor;
        stroke-width: 1px;
      }

      .st2 {
        fill: currentColor;
      }
    </style>
  </defs>
  <line class="st0" x1="4.81" y1="5" x2="12.11" y2="8.48"/>
  <line class="st0" x1="4.82" y1="5" x2="11.29" y2="14.49"/>
  <line class="st0" x1="4.76" y1="10.76" x2="12.11" y2="8.48"/>
  <line class="st0" x1="4.76" y1="10.76" x2="11.29" y2="14.49"/>
  <line class="st0" x1="4.63" y1="13.75" x2="12.11" y2="8.48"/>
  <line class="st0" x1="4.63" y1="13.75" x2="11.29" y2="14.49"/>
  <line class="st0" x1="4.95" y1="18.28" x2="12.11" y2="8.48"/>
  <line class="st0" x1="4.94" y1="18.28" x2="9.21" y2="15.74"/>
  <line class="st0" x1="14.34" y1="7.38" x2="19.33" y2="4.91"/>
  <line class="st0" x1="12.11" y1="8.48" x2="19.35" y2="10.13"/>
  <line class="st0" x1="12.11" y1="8.48" x2="19.47" y2="13.38"/>
  <line class="st0" x1="12.11" y1="8.48" x2="18.69" y2="19.09"/>
  <line class="st0" x1="11.29" y1="14.49" x2="19.47" y2="13.38"/>
  <line class="st0" x1="11.29" y1="14.49" x2="19.35" y2="10.13"/>
  <line class="st0" x1="13.68" y1="16.07" x2="18.69" y2="19.09"/>
  <line class="st0" x1="11.29" y1="14.49" x2="19.33" y2="4.91"/>
  <path class="st1" d="M16.67,19.43c-.56,0-1.12,0-1.67-.16-.37-.12-.75-.23-1.1-.37-.39-.16-.68-.44-.93-.78-.23-.32-.22-.62.02-.93.14-.18.3-.35.44-.52.35-.42.35-.85,0-1.24-.09-.11-.2-.21-.32-.29-.61-.41-1.28-.67-2.02-.65-.33,0-.68.06-.99.19-.54.23-.85.68-.93,1.26-.04.26.09.49.23.7.09.13.18.26.27.38.39.57.2,1.09-.35,1.43-.28.17-.6.23-.92.27-.72.1-1.44.04-2.15-.07-.33-.05-.67-.1-.99-.16-.25-.05-.37-.24-.34-.48.05-.43.12-.86.16-1.3.04-.42.05-.85.05-1.28,0-.36-.05-.73-.11-1.08-.11-.59-.55-.84-1.12-.67-.23.06-.44.17-.67.26-.26.1-.51.19-.79.16-.37-.05-.67-.26-.9-.54-.62-.74-.58-1.66-.14-2.39.33-.55.93-.77,1.6-.63.33.07.66.18.99.26.45.11.83,0,1.13-.34.09-.1.17-.24.2-.37.1-.51.1-1.03.05-1.55-.09-1.08-.39-2.13-.58-3.18-.05-.29.05-.51.34-.59.45-.13.89-.25,1.34-.34.71-.14,1.42-.26,2.13-.36.49-.07.99-.09,1.49-.02.47.07.84.63.67,1.09-.08.21-.22.4-.32.6-.11.23-.23.46-.29.7-.12.43.04.8.31,1.13.78.95,1.97,1.12,2.99.61.43-.22.76-.56,1-.97.16-.29.19-.6.05-.9-.15-.32-.32-.62-.47-.93-.06-.13-.13-.26-.17-.41-.11-.32,0-.57.34-.69.3-.12.61-.14.93-.12.37.02.74.05,1.11.07.95.05,1.89.21,2.81.44.27.06.41.29.33.57-.06.2-.14.4-.23.59-.32.68-.47,1.39-.44,2.14.02.43,0,.86.11,1.27.16.55.47.95,1.04,1.09.46.11.88-.05,1.27-.27.13-.07.26-.17.38-.25.35-.2.68-.15.98.12.27.25.4.56.46.9.14.86-.02,1.65-.54,2.35-.21.28-.47.53-.84.54-.18,0-.37-.05-.55-.11-.2-.07-.38-.18-.57-.26-.59-.26-1.21-.02-1.47.57-.24.55-.31,1.13-.29,1.72.02.71.05,1.42.08,2.13.02.33.04.66.05.98,0,.25-.15.44-.38.5-.45.13-.9.16-1.37.15h-.37Z"/>
  <circle class="st2" cx="4.94" cy="18.28" r="1.05"/>
  <circle class="st2" cx="4.81" cy="5" r="1.05"/>
  <circle class="st2" cx="4.63" cy="13.75" r="1.05"/>
  <circle class="st2" cx="4.76" cy="10.76" r="1.05"/>
  <circle class="st2" cx="12.11" cy="8.48" r="1.05"/>
  <circle class="st2" cx="11.29" cy="14.49" r="1.05"/>
  <circle class="st2" cx="19.47" cy="13.38" r="1.05"/>
  <circle class="st2" cx="18.69" cy="19.09" r="1.05"/>
  <circle class="st2" cx="19.35" cy="10.13" r="1.05"/>
  <circle class="st2" cx="19.33" cy="4.91" r="1.05"/>
</svg>