<?xml version="1.0" encoding="UTF-8"?>
<svg id="misaki-logo-token" xmlns="http://www.w3.org/2000/svg" version="1.1" viewBox="0 0 24 24">
  <!-- Generator: Adobe Illustrator 30.2.1, SVG Export Plug-In . SVG Version: 2.1.1 Build 1)  -->
  <defs>
    <style>
      #misaki-logo-token .st0 {
        fill: none;
        stroke: currentColor;
      }

      #misaki-logo-token .st1 {
        fill: currentColor;
      }
    </style>
  </defs>
  <path class="st0" d="M16.67,19.43c-.56,0-1.12,0-1.67-.16-.37-.12-.75-.23-1.1-.37-.39-.16-.68-.44-.93-.78-.23-.32-.22-.62.02-.93.14-.18.3-.35.44-.52.35-.42.35-.85,0-1.24-.09-.11-.2-.21-.32-.29-.61-.41-1.28-.67-2.02-.65-.33,0-.68.06-.99.19-.54.23-.85.68-.93,1.26-.04.26.09.49.23.7.09.13.18.26.27.38.39.57.2,1.09-.35,1.43-.28.17-.6.23-.92.27-.72.1-1.44.04-2.15-.07-.33-.05-.67-.1-.99-.16-.25-.05-.37-.24-.34-.48.05-.43.12-.86.16-1.3.04-.42.05-.85.05-1.28,0-.36-.05-.73-.11-1.08-.11-.59-.55-.84-1.12-.67-.23.06-.44.17-.67.26-.26.1-.51.19-.79.16-.37-.05-.67-.26-.9-.54-.62-.74-.58-1.66-.14-2.39.33-.55.93-.77,1.6-.63.33.07.66.18.99.26.45.11.83,0,1.13-.34.09-.1.17-.24.2-.37.1-.51.1-1.03.05-1.55-.09-1.08-.39-2.13-.58-3.18-.05-.29.05-.51.34-.59.45-.13.89-.25,1.34-.34.71-.14,1.42-.26,2.13-.36.49-.07.99-.09,1.49-.02.47.07.84.63.67,1.09-.08.21-.22.4-.32.6-.11.23-.23.46-.29.7-.12.43.04.8.31,1.13.78.95,1.97,1.12,2.99.61.43-.22.76-.56,1-.97.16-.29.19-.6.05-.9-.15-.32-.32-.62-.47-.93-.06-.13-.13-.26-.17-.41-.11-.32,0-.57.34-.69.3-.12.61-.14.93-.12.37.02.74.05,1.11.07.95.05,1.89.21,2.81.44.27.06.41.29.33.57-.06.2-.14.4-.23.59-.32.68-.47,1.39-.44,2.14.02.43,0,.86.11,1.27.16.55.47.95,1.04,1.09.46.11.88-.05,1.27-.27.13-.07.26-.17.38-.25.35-.2.68-.15.98.12.27.25.4.56.46.9.14.86-.02,1.65-.54,2.35-.21.28-.47.53-.84.54-.18,0-.37-.05-.55-.11-.2-.07-.38-.18-.57-.26-.59-.26-1.21-.02-1.47.57-.24.55-.31,1.13-.29,1.72.02.71.05,1.42.08,2.13.02.33.04.66.05.98,0,.25-.15.44-.38.5-.45.13-.9.18-1.37.17h-.4Z"/>
  <path class="st1" d="M17.59,9.47l.3.81c.07.2.23.36.43.43l.81.3c.08.03.08.14,0,.17l-.81.3c-.2.07-.36.23-.43.43l-.3.81c-.03.08-.14.08-.17,0l-.3-.81c-.07-.2-.23-.36-.43-.43l-.81-.3c-.08-.03-.08-.14,0-.17l.81-.3c.2-.07.36-.23.43-.43l.3-.81c.03-.08.14-.08.17,0Z"/>
  <path class="st1" d="M15.14,10.61l.67,1.8c.07.2.23.36.43.43l1.8.67c.08.03.08.14,0,.17l-1.8.67c-.2.07-.36.23-.43.43l-.67,1.8c-.03.08-.14.08-.17,0l-.67-1.8c-.07-.2-.23-.36-.43-.43l-1.8-.67c-.08-.03-.08-.14,0-.17l1.8-.67c.2-.07.36-.23.43-.43l.67-1.8c.03-.08.14-.08.17,0Z"/>
</svg>